<?xml version="1.0" encoding="iso-8859-1"?>
<!-- Generator: Adobe Illustrator 19.0.0, SVG Export Plug-In . SVG Version: 6.00 Build 0)  -->
<svg version="1.1" id="Capa_1" xmlns="http://www.w3.org/2000/svg" xmlns:xlink="http://www.w3.org/1999/xlink" x="0px" y="0px"
	 viewBox="0 0 450 450" style="enable-background:new 0 0 450 450;" xml:space="preserve">
<g>
	<path style="fill:#FD5F6E;" d="M315.846,315.846L193.803,446.971c8.403,2.264,16.785,4.23,24.591,2.146
		c14.314-3.821,23.573-20.775,36.698-28.364c12.685-7.334,32.047-6.77,42.9-17.623c18.771-18.771,32.45-40.703,41.059-64.08
		L315.846,315.846z"/>
	<path style="fill:#FB7A5B;" d="M225.091,420.753c12.685-7.334,32.047-6.77,42.9-17.623c24.876-24.876,40.826-55.297,47.855-87.284
		L110.95,110.95c-23.377,8.609-45.308,22.288-64.08,41.059c-10.853,10.853-10.288,30.215-17.623,42.9
		c-7.589,13.125-24.543,22.383-28.364,36.697c-3.876,14.52,6.259,31.034,6.259,45.963c0,14.93-10.135,31.444-6.259,45.964
		c3.821,14.314,20.775,23.573,28.364,36.698c7.334,12.685,6.77,32.047,17.622,42.9c10.853,10.853,30.215,10.288,42.9,17.623
		c13.125,7.588,22.383,24.542,36.697,28.364c14.52,3.876,31.034-6.259,45.963-6.259c6.903,0,14.145,2.167,21.372,4.113
		C205.211,440.989,213.694,427.342,225.091,420.753z"/>
	<path style="fill:#FE4382;" d="M442.857,172.43c0-14.93,10.135-31.443,6.259-45.963c-3.821-14.314-20.776-23.572-28.364-36.697
		c-7.334-12.685-6.77-32.047-17.623-42.9c-10.853-10.853-30.215-10.288-42.9-17.623c-13.125-7.589-22.383-24.543-36.698-28.364
		c-7.806-2.084-16.188-0.118-24.591,2.146L329.84,329.84l9.21,9.21c23.376-8.609,45.308-22.288,64.08-41.059
		c10.853-10.853,10.288-30.215,17.622-42.9c7.589-13.125,24.543-22.383,28.364-36.698
		C452.993,203.874,442.857,187.36,442.857,172.43z"/>
	<path style="fill:#FD5F6E;" d="M390.752,255.091c7.589-13.125,24.543-22.383,28.364-36.698c3.876-14.52-6.259-31.034-6.259-45.964
		c0-14.93,10.135-31.443,6.259-45.963c-3.821-14.314-20.776-23.572-28.364-36.697c-7.334-12.685-6.77-32.047-17.623-42.9
		c-10.853-10.853-30.215-10.288-42.9-17.623c-11.397-6.59-19.88-20.236-31.289-26.219c-7.227,1.947-14.469,4.114-21.373,4.114
		c-14.93,0-31.443-10.135-45.964-6.259c-14.314,3.821-23.572,20.775-36.697,28.364c-12.685,7.334-32.047,6.77-42.9,17.623
		c-18.771,18.771-32.45,40.703-41.059,64.08L329.84,329.84c15.578-8.147,30.202-18.761,43.29-31.849
		C383.983,287.138,383.418,267.776,390.752,255.091z"/>
	<path style="fill:#B440A1;" d="M297.991,152.009c-38.46-38.46-90.169-55.559-140.434-51.355l148.029,247.096
		c11.353-1.805,22.567-4.688,33.464-8.7C362.244,276.07,348.565,202.583,297.991,152.009z"/>
	<path style="fill:#FF2796;" d="M267.991,152.009c-30.821-30.822-70.155-47.931-110.434-51.355
		c-15.832,1.324-31.522,4.74-46.608,10.296c-23.193,62.98-9.515,136.468,41.059,187.042c41.824,41.823,99.314,58.388,153.577,49.759
		C333.44,282.943,320.912,204.93,267.991,152.009z"/>
	<circle style="fill:#FFFFFF;" cx="134.285" cy="412.468" r="7.5"/>
	<path style="fill:#FCD999;" d="M225,165v120c33.137,0,60-26.863,60-60S258.137,165,225,165z"/>
	<path style="fill:#FFFFFF;" d="M255,225c0-33.137-13.431-60-30-60c-33.137,0-60,26.863-60,60s26.863,60,60,60
		C241.569,285,255,258.137,255,225z"/>
	<circle style="fill:#FFFFFF;" cx="412.477" cy="134.299" r="7.5"/>
	<circle style="fill:#FFFFFF;" cx="382.477" cy="104.299" r="7.5"/>
	<circle style="fill:#FFFFFF;" cx="239.424" cy="37.532" r="7.5"/>
	<circle style="fill:#FFFFFF;" cx="382.478" cy="210.562" r="7.5"/>
</g>
<g>
</g>
<g>
</g>
<g>
</g>
<g>
</g>
<g>
</g>
<g>
</g>
<g>
</g>
<g>
</g>
<g>
</g>
<g>
</g>
<g>
</g>
<g>
</g>
<g>
</g>
<g>
</g>
<g>
</g>
</svg>
